<?xml version="1.0" standalone="no"?><!DOCTYPE svg PUBLIC "-//W3C//DTD SVG 1.1//EN" "http://www.w3.org/Graphics/SVG/1.1/DTD/svg11.dtd"><svg t="1576576894755" class="icon" viewBox="0 0 1024 1024" version="1.1" xmlns="http://www.w3.org/2000/svg" p-id="3292" xmlns:xlink="http://www.w3.org/1999/xlink" width="200" height="200"><defs><style type="text/css"></style></defs><path d="M805.704 958.082H207.888c-66.026 0-119.56-53.534-119.56-119.56V718.967h59.78v119.555c0 33.016 26.77 59.78 59.78 59.78h597.815c33.016 0 59.78-26.77 59.78-59.78V180.958c0-33.016-26.77-59.78-59.78-59.78H207.887c-33.016 0-59.78 26.764-59.78 59.78v119.555H88.329V180.958c0-66.025 53.534-119.56 119.56-119.56h597.816c66.024 0 119.56 53.534 119.56 119.56v657.564c-0.001 66.026-53.536 119.56-119.56 119.56z" fill="#ffffff" p-id="3293"></path><path d="M192.353 323.163c-11.647-11.673-11.647-30.616 0-42.263 11.673-11.678 30.616-11.678 42.295 0l206.227 206.218c6.214 6.22 8.87 14.48 8.464 22.62 0.407 8.143-2.25 16.405-8.464 22.656L234.647 738.611c-11.678 11.673-30.622 11.673-42.295 0-11.647-11.678-11.647-30.621 0-42.269l156.722-156.717H118.218c-16.493 0-29.89-13.364-29.89-29.888 0-16.486 13.398-29.89 29.89-29.89h230.856l-156.72-156.684zM602.149 578.605v-45.34h-88.16c-18.497 0-27.707-6.69-27.707-20.15 0-13.421 9.21-20.978 27.708-22.67h60.452L471.168 331.758c-1.693 0-3.386-1.653-5.038-5.038-3.385-5.038-5.038-11.728-5.038-20.15 0-11.729 7.557-19.286 22.67-22.67 11.727 1.692 21.803 7.556 30.227 17.631l115.867 173.8 115.867-173.8c6.69-10.075 16.766-15.939 30.226-17.631 13.42 3.385 20.977 10.941 22.67 22.67 0 5.037-2.52 11.767-7.558 20.15-1.691 1.693-2.52 3.385-2.52 5.038L685.27 490.445h60.452c16.766 1.693 26.015 9.25 27.707 22.67-1.692 13.46-10.94 20.15-27.707 20.15h-88.16v45.34h88.16c16.766 1.691 26.015 9.249 27.707 22.67-1.692 13.459-10.94 20.15-27.707 20.15h-88.16v100.753c-1.692 16.806-10.94 25.189-27.706 25.189-18.499 0-27.707-8.383-27.707-25.19V621.425h-88.16c-18.497 0-27.707-6.69-27.707-20.15 0-13.42 9.21-20.978 27.708-22.669h88.159z" fill="#ffffff" p-id="3294"></path></svg>